#N canvas 259 410 787 448 10;
#X obj 79 155 tabreceive~ hanning;
#X obj 30 183 *~;
#X msg 376 229 0;
#X obj 290 278 osc~;
#X obj 290 230 samplerate~;
#X obj 290 301 *~ -0.5;
#X obj 290 324 +~ 0.5;
#X obj 282 174 bng 15 250 50 0 empty empty empty 0 -6 0 8 -262144 -1
-1;
#X obj 282 349 tabwrite~ hanning;
#X obj 30 210 rfft~;
#X obj 30 245 *~;
#X obj 57 244 *~;
#X obj 30 287 +~;
#X obj 30 314 sqrt~;
#X obj 30 353 print~;
#X obj 109 320 bng 15 250 50 0 empty empty empty 0 -6 0 8 -262144 -1
-1;
#X obj 30 92 inlet~;
#X obj 282 194 t b b b;
#X obj 282 101 loadbang;
#X obj 411 153 table hanning 4096;
#X obj 29 12 block~ 1024 4;
#X obj 290 254 / 64;
#X connect 0 0 1 1;
#X connect 1 0 9 0;
#X connect 2 0 3 1;
#X connect 3 0 5 0;
#X connect 4 0 21 0;
#X connect 5 0 6 0;
#X connect 6 0 8 0;
#X connect 7 0 17 0;
#X connect 9 0 10 0;
#X connect 9 0 10 1;
#X connect 9 1 11 0;
#X connect 9 1 11 1;
#X connect 10 0 12 0;
#X connect 11 0 12 1;
#X connect 12 0 13 0;
#X connect 13 0 14 0;
#X connect 15 0 14 0;
#X connect 16 0 1 0;
#X connect 17 0 8 0;
#X connect 17 1 4 0;
#X connect 17 2 2 0;
#X connect 18 0 7 0;
#X connect 21 0 3 0;
